<svg xmlns="http://www.w3.org/2000/svg" width="32" height="32" viewBox="0 0 32 32">
  <defs>
    <linearGradient id="g" x1="0" y1="0" x2="1" y2="1">
      <stop offset="0" stop-color="#6366f1" />
      <stop offset="1" stop-color="#7c3aed" />
    </linearGradient>
  </defs>
  <rect width="32" height="32" rx="8" fill="url(#g)" />
  <g transform="translate(4 4)" fill="none" stroke="#ffffff" stroke-width="1.8" stroke-linecap="round" stroke-linejoin="round">
    <path d="M13.5 4H7a2 2 0 0 0-2 2v12a2 2 0 0 0 2 2h10a2 2 0 0 0 2-2v-6.5" />
    <path d="M8.75 11.5h3.5M8.75 14.75h5.5" />
    <path d="M16.7 3.3a1.85 1.85 0 0 1 2.6 2.6l-5.1 5.1-3.1.7.7-3.1 4.9-5.3z" />
  </g>
</svg>
